<svg xmlns="http://www.w3.org/2000/svg" viewBox="0 0 526.24 92.02"><title>sws_logo</title><path d="M163,80.61a10.11,10.11,0,0,1,1.54.91,5.4,5.4,0,0,1,1.08,1.25,3.48,3.48,0,0,1,.49,2,4.2,4.2,0,0,1-.25,1.39,3.54,3.54,0,0,1-.84,1.34,4.68,4.68,0,0,1-1.52,1,5.8,5.8,0,0,1-2.32.4,8.35,8.35,0,0,1-1.23-.08c-0.4-.07-0.78-0.14-1.15-0.22l-0.95-.24a3.23,3.23,0,0,1-.55-0.18,7.34,7.34,0,0,1-.88-0.37c-0.24-.12-0.53-0.25-0.88-0.4L155,90.85a9.72,9.72,0,0,0,1.43.51c0.41,0.12,1.07.27,2,.43a18.07,18.07,0,0,0,3,.23h0.44a2.6,2.6,0,0,0,.44,0,9.14,9.14,0,0,0,2.48-.42,8.62,8.62,0,0,0,1.65-.71,5.2,5.2,0,0,0,.47-0.28,3.7,3.7,0,0,0,.73-0.6A6.35,6.35,0,0,0,169,88.26a9.31,9.31,0,0,0,.69-1.72,7.24,7.24,0,0,0,.26-1.41c0-.4,0-0.65,0-0.75s0-.42,0-0.76a6.94,6.94,0,0,0-.22-1.21A6.06,6.06,0,0,0,168.41,80,14.23,14.23,0,0,0,167,78.67c-0.39-.27-0.75-0.5-1.09-0.69l-1.1-.59-2.3-1.32L162,75.82l-0.43-.29-0.49-.35a5.9,5.9,0,0,1-.74-0.63,7.51,7.51,0,0,1-.73-0.88,2.65,2.65,0,0,1-.45-1.11,0.72,0.72,0,0,1-.06-0.2,2.71,2.71,0,0,1,0-.35,2.86,2.86,0,0,1,.25-1.26,3.08,3.08,0,0,1,.55-0.83,4.17,4.17,0,0,1,1.48-.95,5.85,5.85,0,0,1,2.29-.4,14.4,14.4,0,0,1,1.5.11,8.73,8.73,0,0,1,2.27.62c0.25,0.07.46,0.15,0.64,0.22a4.82,4.82,0,0,1,.6.29l0.56-3.21s-0.24-.11-0.56-0.24a6.39,6.39,0,0,0-.87-0.31,9.68,9.68,0,0,0-1.1-.26c-0.41-.07-0.85-0.13-1.3-0.18s-0.88-.08-1.3-0.09l-1.1,0a9.13,9.13,0,0,0-3.37.58,8,8,0,0,0-2.23,1.35A6,6,0,0,0,155.68,70a6.77,6.77,0,0,0-.38,2.58,7.9,7.9,0,0,0,.42,2.09,5.82,5.82,0,0,0,1,1.82,6.88,6.88,0,0,0,1.48,1.41c0.58,0.41,1.17.79,1.78,1.15l3,1.57h0Zm12.18-14.77V69h8V91.66h3.69V69h8V65.84H175.15Zm25.71,0V80.43c0,0.46,0,.87,0,1.23s0,0.76.09,1.23a13.53,13.53,0,0,0,.43,2.91,9.08,9.08,0,0,0,.74,1.88,7.19,7.19,0,0,0,2,2.42,9.22,9.22,0,0,0,2.34,1.28,9.65,9.65,0,0,0,2,.51c0.59,0.07.94,0.11,1.06,0.11h1a13.29,13.29,0,0,0,3.81-.45,8.25,8.25,0,0,0,2.45-1.15l0.69-.52a5.42,5.42,0,0,0,.95-1,8.59,8.59,0,0,0,1.27-2.06,10.82,10.82,0,0,0,.66-2.18,18.73,18.73,0,0,0,.25-2.18c0-.71,0-1.4,0-2.06V65.84h-3.58V80.78c0,0.56,0,1.16-.07,1.77a11.88,11.88,0,0,1-.33,1.89,7.54,7.54,0,0,1-.79,1.85,5.31,5.31,0,0,1-1.48,1.6,5.24,5.24,0,0,1-1.19.68,6.79,6.79,0,0,1-1.11.34,5.66,5.66,0,0,1-.9.13l-0.53,0-0.51,0a4.78,4.78,0,0,1-.84-0.13,7.66,7.66,0,0,1-1-.31,4.26,4.26,0,0,1-1.11-.6,5.1,5.1,0,0,1-1.15-1.08,7.7,7.7,0,0,1-.75-1.27,6.24,6.24,0,0,1-.62-2.21c-0.07-.77-0.13-1.51-0.18-2.22V65.84h-3.69Zm25.82,0V69h8V91.66h3.7V69h8V65.84H226.68Zm24.25,0V69h8V91.66h3.69V69h8V65.84H250.93Zm44.22,0.87L292.38,66a17.17,17.17,0,0,0-4.18-.44,22.74,22.74,0,0,0-3.08.22,14.94,14.94,0,0,0-3.08.77l-0.86.36a12.83,12.83,0,0,0-2.83,1.79,11.6,11.6,0,0,0-1.57,1.57,14.67,14.67,0,0,0-1.84,3.36,13.5,13.5,0,0,0-.86,5.16,13.28,13.28,0,0,0,.91,5.28,12.8,12.8,0,0,0,2.08,3.42A11.5,11.5,0,0,0,279,89.32c0.61,0.44,1.08.76,1.42,1a13.07,13.07,0,0,0,3.08,1.24,18.13,18.13,0,0,0,4.69.51,20.36,20.36,0,0,0,3.69-.32c1.17-.23,2.4-0.51,3.68-0.85v-13h-9.06v3H292v7.54c-0.41.12-.88,0.24-1.38,0.36a8.55,8.55,0,0,1-2,.19c-0.34,0-.85,0-1.56-0.09a11,11,0,0,1-2.39-.53l-0.4-.13a5.78,5.78,0,0,1-.72-0.27c-0.27-.12-0.58-0.27-0.91-0.44a4.66,4.66,0,0,1-.94-0.63,7.38,7.38,0,0,1-1-.87,8.62,8.62,0,0,1-1.15-1.54,11.23,11.23,0,0,1-1.23-3,12.66,12.66,0,0,1-.39-3c0-.27,0-0.73.08-1.39a7,7,0,0,1,.54-2.16c0.16-.37.3-0.71,0.46-1l0.36-.66c0.05-.07.16-0.24,0.35-0.49a7.4,7.4,0,0,1,.64-0.79,10.1,10.1,0,0,1,1.33-1.17,10.28,10.28,0,0,1,1.79-1.06,11,11,0,0,1,2.2-.75,11.67,11.67,0,0,1,2.6-.27c0.33,0,1,0,1.87.15a12.42,12.42,0,0,1,3,.76c0.4,0.17.73,0.33,1,.48l0.66,0.33,0.26-3.59h0Zm14.22,15.43c0.38-1,.73-1.87,1-2.68s0.64-1.72,1.06-2.72c0.2-.56.39-1.05,0.56-1.49s0.38-.92.57-1.48q0.51-1.32.9-2.36c0.25-.69.53-1.49,0.86-2.4L315,70.87c0.22,0.57.43,1.14,0.64,1.7s0.42,1.12.64,1.68,0.46,1.17.73,1.83l0.62,1.59c0.19,0.51.39,1,.58,1.47s0.4,1,.6,1.44,0.42,1,.64,1.57H309.37Zm3.11-16.31-10.9,25.82h3.91l2.67-6.58h12.47l2.71,6.58h4.24l-11.2-25.82h-3.91Zm25,3.11h3.84l0.81,0a4.55,4.55,0,0,1,1.27.2,5.33,5.33,0,0,1,1,.36,3.69,3.69,0,0,1,1,.69,4,4,0,0,1,.73,1.1,3.67,3.67,0,0,1,.25,1.61,7.91,7.91,0,0,1-.11.78,3.41,3.41,0,0,1-.26.79c-0.12.22-.27,0.47-0.46,0.77a2.78,2.78,0,0,1-1,.84,4.5,4.5,0,0,1-1.9.66c-0.68.07-1.33,0.12-1.94,0.14h-3.14v-8h0Zm-3.66-3.11V91.66h3.7V80.1h2.34l0.53,0a7.12,7.12,0,0,1,.86.09,3,3,0,0,1,1.09.37,3.06,3.06,0,0,1,.74.57,3.65,3.65,0,0,1,.47.64c0.12,0.23.23,0.42,0.33,0.59l4,9.29h4.24L347.32,81.2c-0.19-.34-0.37-0.62-0.51-0.84a5.15,5.15,0,0,0-.48-0.61,4.09,4.09,0,0,0-.59-0.51,7.93,7.93,0,0,0-.87-0.53,3.71,3.71,0,0,0,.69-0.26c0.22-.07.65-0.26,1.3-0.55a5.79,5.79,0,0,0,1.85-1.39,6,6,0,0,0,1-1.51,5.94,5.94,0,0,0,.42-2.43c0-.1,0-0.28,0-0.55s-0.05-.59-0.11-1a5.93,5.93,0,0,0-.33-1.17,5.52,5.52,0,0,0-.68-1.25,5.31,5.31,0,0,0-1.54-1.46,3.79,3.79,0,0,0-.58-0.37l-0.62-.29a9.38,9.38,0,0,0-2.6-.57,39,39,0,0,0-4-.17l-0.73,0-0.73,0h-4.43Zm23.15,0V69h8V91.66h3.7V69h8V65.84H357Z" style="fill:#343333"></path><path d="M169.2,24.31a8.84,8.84,0,0,0-1.91.21,5.69,5.69,0,0,0-1.91.8,4.28,4.28,0,0,0-1.44,1.59,5,5,0,0,0-.58,2.55,2.77,2.77,0,0,0,.74,2A7.87,7.87,0,0,0,166,32.87,22.34,22.34,0,0,0,168.61,34l2.92,1.22a24,24,0,0,1,3,1.38,10.66,10.66,0,0,1,2.6,2.08A9.86,9.86,0,0,1,179,41.52a11.76,11.76,0,0,1,.64,4.09q-0.1,6-4.09,8.6a17.61,17.61,0,0,1-9.83,2.61,23.23,23.23,0,0,1-4.83-.42q-2-.37-4.67-1l0.69-6.69a17.11,17.11,0,0,0,8.4,2.28,9,9,0,0,0,4.41-1.16,4,4,0,0,0,2.17-3.61,4,4,0,0,0-.64-2.29,6.45,6.45,0,0,0-1.86-1.6,50,50,0,0,0-5.58-2.45,20.12,20.12,0,0,1-2.92-1.49,14.08,14.08,0,0,1-2.66-1.91,9.9,9.9,0,0,1-1.85-2.82,9.22,9.22,0,0,1-.74-3.88q0.1-6.16,4.09-8.82a15.85,15.85,0,0,1,8.87-2.5,28.47,28.47,0,0,1,8.87,1.33l-0.69,6.11a19.44,19.44,0,0,0-7.54-1.6m27.88,0.64H186.46V19.11h28.69v5.84H204.52V56.18h-7.44V24.95h0Zm37.24,1.6h-0.11l-5.36,15.3h10.83l-5.36-15.3h0Zm-4.1-7.44h8.4l14.55,37.07h-8.24l-3.19-8.5h-15l-3.24,8.5h-7.7l14.45-37.07h0Zm31.71,0h10.14q8.82-.1,15,3.72a14,14,0,0,1,4.72,5.63,21.68,21.68,0,0,1,1.71,9.19,21,21,0,0,1-1.71,9,14.28,14.28,0,0,1-4.72,5.74,19.08,19.08,0,0,1-6.8,2.92,37.75,37.75,0,0,1-8.19.85H261.94V19.11h0Zm7.44,31.23h4.15A12.12,12.12,0,0,0,282,47q3.61-3.29,3.72-9.35-0.11-6.1-3.72-9.4a12.22,12.22,0,0,0-8.5-3.3h-4.15V50.34h0ZM311,24.95H300.39V19.11h28.69v5.84H318.45V56.18H311V24.95h0Zm23-5.84h7.81l6.9,29.64h0.1l6.32-29.64h10.09l6.53,29.64h0.11l7-29.64h7.23l-9.66,37.07h-9.57l-6.69-29.63H360l-6.58,29.63h-9.62L334,19.11h0Zm60.87,0h21.88v5.84H402.33v9.14h13.22v5.84H402.33V50.34h14.55v5.84h-22V19.11h0ZM435.2,34.94h2.44a20.28,20.28,0,0,0,2.87-.21A7.87,7.87,0,0,0,443,34a5,5,0,0,0,1.87-1.54,5.21,5.21,0,0,0,.63-2.71,5.07,5.07,0,0,0-.63-2.71A4.71,4.71,0,0,0,443,25.64a8.66,8.66,0,0,0-2.49-.64c-1,0-1.91-.06-2.87-0.06H435.2v10h0Zm-7.43-15.83h8q3.08,0,6.16.05a20,20,0,0,1,5.63,1.07,8,8,0,0,1,4.15,3,10.39,10.39,0,0,1,1.53,5.95,8.53,8.53,0,0,1-2,5.69,8.66,8.66,0,0,1-5.61,2.92v0.11a3.51,3.51,0,0,1,2.42,1.33,9.78,9.78,0,0,1,1.48,2.5l5.94,14.49H447.2L442.79,44.6a6.48,6.48,0,0,0-1.75-3,5.66,5.66,0,0,0-3.43-.85H435.2v15.4h-7.43V19.11h0Zm37.07,0h7.44V35l13.39-15.94h9.14L479.55,36.59l15.89,19.59h-9.72L472.38,39h-0.11v17.2h-7.44V19.11h0Zm39.41,0h21.89v5.84H511.69v9.14h13.22v5.84H511.69V50.34h14.55v5.84h-22V19.11h0Z" style="fill:#343333"></path><polygon points="91.71 0 68.79 22.93 91.71 45.86 91.71 91.72 137.57 45.86 137.57 0 91.71 0 91.71 0" style="fill:#33b4e5"></polygon><polygon points="0 0 0 45.86 45.86 91.72 45.86 45.86 68.78 22.93 45.86 0 0 0 0 0" style="fill:#fceb40"></polygon><polygon points="45.86 45.86 45.86 91.72 91.72 91.72 91.72 45.86 68.81 22.93 45.86 45.86 45.86 45.86" style="fill:#27a958"></polygon></svg>